<?xml version="1.0" encoding="utf-8"?>
<!-- Generator: Adobe Illustrator 26.0.1, SVG Export Plug-In . SVG Version: 6.00 Build 0)  -->
<svg version="1.1" id="Layer_1" xmlns="http://www.w3.org/2000/svg" xmlns:xlink="http://www.w3.org/1999/xlink" x="0px" y="0px"
	 viewBox="0 0 800 800" style="enable-background:new 0 0 800 800;" xml:space="preserve">
<style type="text/css">
	.st0{fill:#3F51B5;}
	.st1{fill:#FFFFFF;}
</style>
<g>
	<path class="st0" d="M799.5,688.5c0,61.3-49.7,111-111,111H111.5c-61.3,0-111-49.7-111-111V111.5c0-61.3,49.7-111,111-111h577.1
		c61.3,0,111,49.7,111,111V688.5z"/>
	<path class="st1" d="M630.1,422.2h-74.8v288.5h-111V422.2h-66.6v-88.8h66.6v-53.5c0-77.9,32.4-124.1,124.1-124.1h75.6v88.8h-50.8
		c-35.7,0-38,13.3-38,38.2v50.5h88.8L630.1,422.2z"/>
</g>
</svg>
