<?xml version="1.0" encoding="utf-8"?>
<!-- Generator: Adobe Illustrator 26.0.1, SVG Export Plug-In . SVG Version: 6.00 Build 0)  -->
<svg version="1.1" id="Layer_1" xmlns="http://www.w3.org/2000/svg" xmlns:xlink="http://www.w3.org/1999/xlink" x="0px" y="0px"
	 viewBox="0 0 800 800" style="enable-background:new 0 0 800 800;" xml:space="preserve">
<style type="text/css">
	.st0{fill-rule:evenodd;clip-rule:evenodd;fill:#212121;}
	.st1{fill-rule:evenodd;clip-rule:evenodd;fill:#FFFFFF;}
</style>
<g>
	<path class="st0" d="M708.5,796.7h-617c-48.7,0-88.1-39.5-88.1-88.1v-617c0-48.7,39.5-88.1,88.1-88.1h617
		c48.7,0,88.1,39.5,88.1,88.1v617C796.7,757.2,757.2,796.7,708.5,796.7z"/>
	<path class="st1" d="M626,620.4H484.2L175.9,179.6h141.9L626,620.4z M501.1,583h56.5L300.8,217h-56.5L501.1,583z"/>
	<polygon class="st1" points="220.7,620.4 379.5,436.5 358.7,409 175.7,620.4 	"/>
	<polygon class="st1" points="409.9,349.8 429.9,378.2 601.3,179.6 557.3,179.6 	"/>
</g>
</svg>
