<?xml version="1.0" encoding="utf-8"?>
<!-- Generator: Adobe Illustrator 26.0.1, SVG Export Plug-In . SVG Version: 6.00 Build 0)  -->
<svg version="1.1" id="Layer_1" xmlns="http://www.w3.org/2000/svg" xmlns:xlink="http://www.w3.org/1999/xlink" x="0px" y="0px"
	 viewBox="0 0 800 800" style="enable-background:new 0 0 800 800;" xml:space="preserve">
<style type="text/css">
	.st0{fill:url(#SVGID_1_);}
	.st1{fill:url(#SVGID_00000171692678561267498590000011046251270721467552_);}
	.st2{fill:url(#SVGID_00000106863188519592234980000002238368001642266540_);}
	.st3{fill:#FFFFFF;}
	.st4{fill-rule:evenodd;clip-rule:evenodd;fill:#FFFFFF;}
</style>
<radialGradient id="SVGID_1_" cx="382.1105" cy="417.8293" r="1.1334" gradientTransform="matrix(362.5004 -524.9997 -524.9997 -362.5004 81131.7266 352669.5625)" gradientUnits="userSpaceOnUse">
	<stop  offset="0" style="stop-color:#B13589"/>
	<stop  offset="0.7931" style="stop-color:#C62F94"/>
	<stop  offset="1" style="stop-color:#8A3AC8"/>
</radialGradient>
<path class="st0" d="M173.3,3.3h453.3c93.9,0,170,76.1,170,170v453.3c0,93.9-76.1,170-170,170H173.3c-93.9,0-170-76.1-170-170V173.3
	C3.3,79.4,79.4,3.3,173.3,3.3z"/>
<radialGradient id="SVGID_00000065066414648079630540000012826576948378432701_" cx="382.2365" cy="417.8875" r="1.1334" gradientTransform="matrix(237.4995 -512.4989 -512.4989 -237.4995 123644.2188 295968.9062)" gradientUnits="userSpaceOnUse">
	<stop  offset="0" style="stop-color:#E0E8B7"/>
	<stop  offset="0.4447" style="stop-color:#FB8A2E"/>
	<stop  offset="0.7147" style="stop-color:#E2425C"/>
	<stop  offset="1" style="stop-color:#E2425C;stop-opacity:0"/>
</radialGradient>
<path style="fill:url(#SVGID_00000065066414648079630540000012826576948378432701_);" d="M173.3,3.3h453.3c93.9,0,170,76.1,170,170
	v453.3c0,93.9-76.1,170-170,170H173.3c-93.9,0-170-76.1-170-170V173.3C3.3,79.4,79.4,3.3,173.3,3.3z"/>
<radialGradient id="SVGID_00000168804736275959246030000008576099809830120629_" cx="381.6203" cy="419.3197" r="1.1334" gradientTransform="matrix(962.5007 -137.5001 -29.4098 -205.8689 -355016.8438 138829.3594)" gradientUnits="userSpaceOnUse">
	<stop  offset="0.1567" style="stop-color:#406ADC"/>
	<stop  offset="0.4678" style="stop-color:#6A45BE"/>
	<stop  offset="1" style="stop-color:#6A45BE;stop-opacity:0"/>
</radialGradient>
<path style="fill:url(#SVGID_00000168804736275959246030000008576099809830120629_);" d="M173.3,3.3h453.3c93.9,0,170,76.1,170,170
	v453.3c0,93.9-76.1,170-170,170H173.3c-93.9,0-170-76.1-170-170V173.3C3.3,79.4,79.4,3.3,173.3,3.3z"/>
<path class="st3" d="M598.3,244.2c0,23.5-19,42.5-42.5,42.5c-23.5,0-42.5-19-42.5-42.5c0-23.5,19-42.5,42.5-42.5
	C579.3,201.7,598.3,220.7,598.3,244.2z"/>
<path class="st4" d="M400,541.7c78.2,0,141.7-63.4,141.7-141.7S478.2,258.3,400,258.3S258.3,321.8,258.3,400S321.8,541.7,400,541.7z
	 M400,485c46.9,0,85-38.1,85-85s-38.1-85-85-85s-85,38.1-85,85S353.1,485,400,485z"/>
<path class="st4" d="M116.7,388.7c0-95.2,0-142.8,18.5-179.2c16.3-32,42.3-58,74.3-74.3c36.4-18.5,84-18.5,179.2-18.5h22.7
	c95.2,0,142.8,0,179.2,18.5c32,16.3,58,42.3,74.3,74.3c18.5,36.4,18.5,84,18.5,179.2v22.7c0,95.2,0,142.8-18.5,179.2
	c-16.3,32-42.3,58-74.3,74.3c-36.4,18.5-84,18.5-179.2,18.5h-22.7c-95.2,0-142.8,0-179.2-18.5c-32-16.3-58-42.3-74.3-74.3
	c-18.5-36.4-18.5-84-18.5-179.2V388.7z M388.7,173.3h22.7c48.5,0,81.5,0,107,2.1c24.8,2,37.6,5.7,46.4,10.2
	c21.3,10.9,38.7,28.2,49.5,49.5c4.5,8.9,8.2,21.6,10.2,46.4c2.1,25.5,2.1,58.5,2.1,107v22.7c0,48.5,0,81.5-2.1,107
	c-2,24.8-5.7,37.6-10.2,46.4c-10.9,21.3-28.2,38.7-49.5,49.5c-8.9,4.5-21.6,8.2-46.4,10.2c-25.5,2.1-58.5,2.1-107,2.1h-22.7
	c-48.5,0-81.5,0-107-2.1c-24.8-2-37.6-5.7-46.4-10.2c-21.3-10.9-38.7-28.2-49.5-49.5c-4.5-8.9-8.2-21.6-10.2-46.4
	c-2.1-25.5-2.1-58.5-2.1-107v-22.7c0-48.5,0-81.5,2.1-107c2-24.8,5.7-37.6,10.2-46.4c10.9-21.3,28.2-38.7,49.5-49.5
	c8.9-4.5,21.6-8.2,46.4-10.2C307.1,173.4,340.1,173.3,388.7,173.3z"/>
</svg>
