<?xml version="1.0" encoding="utf-8"?>
<!-- Generator: Adobe Illustrator 26.0.1, SVG Export Plug-In . SVG Version: 6.00 Build 0)  -->
<svg version="1.1" id="Layer_1" xmlns="http://www.w3.org/2000/svg" xmlns:xlink="http://www.w3.org/1999/xlink" x="0px" y="0px"
	 viewBox="0 0 800 800" style="enable-background:new 0 0 800 800;" xml:space="preserve">
<style type="text/css">
	.st0{fill:none;stroke:#000000;stroke-width:37.5;stroke-miterlimit:50;}
</style>
<g>
	<path class="st0" d="M508.2,748.6C317,812.9,109.7,710.1,45.3,518.8S83.8,120.3,275.1,55.9S673.6,94.4,738,285.7
		c12.6,37.5,19.1,76.8,19.1,116.4c-1.2,29.6-4.8,59.1-10.7,88.2"/>
	<path class="st0" d="M477.8,680.6c-26.3,29.9-55.1,57.4-86.1,82.3"/>
	<path class="st0" d="M391.7,32.4c98.6,86.2,159.7,207.5,170.1,338.1c2.1,23.7,2.6,47.5,1.3,71.3"/>
	<path class="st0" d="M391.7,32.4C283.4,126.8,220.8,263,219.8,406.6c0,238.1,107,308.7,171.4,356.3"/>
	<line class="st0" x1="73.7" y1="222" x2="711.4" y2="222"/>
	<line class="st0" x1="391.7" y1="32.2" x2="391.7" y2="763"/>
	<line class="st0" x1="83.7" y1="598" x2="465.8" y2="598"/>
	<line class="st0" x1="26.2" y1="406.6" x2="757.1" y2="397.7"/>
	<path class="st0" d="M708.7,767.4l65.1-65.3L656.3,584.5l66.9-42.8c2.7-1.6,3.5-5,2-7.7c-0.8-1.4-2.2-2.3-3.7-2.6l-224.8-52.6
		c-3.1-0.6-6.1,1.4-6.8,4.5c-0.2,0.8-0.2,1.5,0,2.3l48.8,229c0.7,3.1,3.7,5.1,6.8,4.4c1.5-0.3,2.8-1.2,3.6-2.5l42-66.7L708.7,767.4z
		"/>
</g>
</svg>
