<svg width="39" height="39" viewBox="0 0 39 39" fill="none" xmlns="http://www.w3.org/2000/svg">
<path fill-rule="evenodd" clip-rule="evenodd" d="M25.9939 8.27195V5.36412C25.9939 5.11126 25.8674 4.85841 25.6146 4.73198L19.6725 2.077C19.5461 1.95057 19.2932 1.95057 19.1668 2.077L13.2247 4.73198C12.9718 4.85841 12.8454 5.11126 12.8454 5.36412V8.27195C12.8454 16.6162 18.4082 17.8805 19.2932 18.0069C19.4196 18.0069 19.4196 18.0069 19.5461 18.0069C20.3046 17.754 25.9939 16.6162 25.9939 8.27195ZM10.4433 18.0069C10.8226 17.5012 10.5697 16.7426 10.064 16.3633L8.42043 15.3519C7.91472 14.9726 7.15615 15.2255 6.77687 15.7312L1.97262 23.949C1.71976 24.5811 1.84619 25.2133 2.3519 25.5925L3.99546 26.604C4.50117 26.9832 5.25974 26.7304 5.63902 26.2247L10.4433 18.0069ZM17.5232 28.8797C16.8911 28.5004 16.2589 28.7532 15.8797 29.3854L13.4775 33.5575C13.2247 34.1896 13.4775 34.8218 13.9832 35.0746C14.489 35.3275 15.1211 35.201 15.5004 34.6953C16.2589 33.3046 17.1439 31.9139 17.9025 30.5232C18.2818 29.8911 18.1554 29.1325 17.5232 28.8797ZM11.7075 26.7304C12.3397 27.1097 12.3397 27.7418 12.0868 28.3739L10.5697 31.0289C10.1904 31.5346 9.55828 31.7875 8.92614 31.5346C8.294 31.1554 8.294 30.5232 8.54686 29.8911L10.064 27.2361C10.4433 26.604 11.0754 26.4775 11.7075 26.7304ZM30.7981 30.0175C30.4188 30.5232 29.7867 30.7761 29.1546 30.3968L25.3617 28.2475C25.2353 28.1211 24.9824 28.2475 24.856 28.3739C24.7296 28.5004 24.856 28.7532 24.9824 28.8797L27.7639 30.5232C28.2696 30.9025 28.5224 31.5346 28.2696 32.1668C27.8903 32.6725 27.2581 32.9253 26.626 32.5461L23.8446 30.9025C23.7182 30.7761 23.4653 30.7761 23.3389 31.0289C23.2125 31.1554 23.2125 31.4082 23.4653 31.5346L25.2353 32.5461C25.741 32.9253 25.9939 33.5575 25.741 34.1896C25.4882 34.6953 24.7296 34.9482 24.0975 34.5689L22.3275 33.5575C22.201 33.4311 21.9482 33.5575 21.8218 33.6839C21.6953 33.8103 21.8218 34.0632 21.9482 34.1896L22.7068 34.6953C23.3389 34.9482 23.4653 35.7068 23.2125 36.2125C22.9596 36.7182 22.201 36.971 21.6953 36.7182C21.6953 36.7182 21.6953 36.7182 21.5689 36.7182L19.4196 35.4539L20.6839 33.3046C21.1896 32.4196 20.9368 31.2818 20.0518 30.7761C19.6725 30.5232 19.1668 30.5232 18.7875 30.5232C19.1668 29.5118 18.6611 28.5004 17.6496 28.1211C17.0175 27.8682 16.3854 27.9947 15.8797 28.3739C15.6268 27.3625 14.6154 26.7304 13.604 26.9832C13.3511 26.9832 13.2247 27.1097 12.9718 27.2361C12.719 26.2247 11.7075 25.5925 10.6961 25.8454C10.1904 25.9718 9.81113 26.3511 9.55828 26.7304L8.54686 28.3739C8.294 28.1211 7.91472 27.7418 7.66186 27.3625C7.28258 26.9832 7.02972 26.4775 6.65044 25.9718L10.8226 18.7654C12.2133 19.524 13.604 19.7769 14.8682 20.0297C15.3739 20.1562 15.7532 20.1562 16.2589 20.2826L14.489 22.0526C13.9832 22.5583 13.9832 23.3168 14.489 23.8226C15.5004 24.834 17.2704 24.7075 18.2818 23.6961L19.4196 22.5583H20.9368C22.3275 23.949 23.7182 24.5811 24.856 24.834L30.5453 28.1211C30.9245 28.7532 31.1774 29.3854 30.7981 30.0175ZM14.6154 27.8682C15.1211 28.2475 15.3739 28.8797 14.9947 29.5118L12.8454 33.1782C12.5925 33.6839 11.834 33.9368 11.2018 33.6839C10.6961 33.4311 10.4433 32.6725 10.6961 32.0404L12.8454 28.3739C13.3511 27.7418 13.9832 27.489 14.6154 27.8682ZM19.6725 31.4082C20.1782 31.7875 20.4311 32.4196 20.0518 33.0518L18.5346 35.7068C18.2818 36.2125 17.5232 36.4653 16.8911 36.2125C16.3854 35.9596 16.1325 35.201 16.3854 34.5689L17.9025 31.9139C18.4082 31.2818 19.0404 31.0289 19.6725 31.4082ZM24.856 24.4547C26.7524 24.834 28.0167 24.2018 28.0167 24.0754C28.1431 23.949 28.396 24.0754 28.5224 24.2018C28.6489 24.3283 28.5224 24.5811 28.396 24.7075C28.396 24.7075 27.6374 25.0868 26.3732 25.2133L30.7981 27.7418L30.9245 27.8682C31.1774 27.6154 31.3038 27.3625 31.5567 27.1097C31.8095 26.8568 32.0624 26.4775 32.1888 26.0983L28.0167 18.8919C27.8903 19.0183 27.7639 19.0183 27.511 19.1447C27.2581 19.2712 27.0053 19.3976 26.7524 19.3976C25.8674 19.7769 24.856 19.6504 23.971 19.2712L23.2125 19.0183C22.5803 18.7654 21.9482 18.639 21.1896 18.8919L18.2818 19.6504C17.7761 19.7769 17.2704 20.0297 16.8911 20.409L14.6154 22.6847C14.489 22.9376 14.489 23.1904 14.6154 23.3168C15.2475 23.949 16.6382 23.8226 17.3968 23.1904L18.6611 21.9261C18.7875 21.7997 18.7875 21.7997 18.9139 21.7997H20.6839C20.8103 21.7997 20.9368 21.7997 20.9368 21.9261C22.4539 23.5697 23.7182 24.2018 24.856 24.4547ZM33.0738 26.3511C33.4531 26.8568 34.0852 27.1097 34.7174 26.7304L36.3609 25.719C36.9931 25.3397 37.1195 24.7075 36.7402 24.0754L31.936 15.8576C31.5567 15.3519 30.9245 15.099 30.2924 15.4783L28.6488 16.4898C28.1431 16.869 27.8903 17.5012 28.2696 18.1333L33.0738 26.3511ZM15.6268 10.4212C15.3739 10.0419 15.5004 9.53623 15.8797 9.28337C16.2589 9.03052 16.7647 9.15695 17.0175 9.53623L17.9025 10.9269L22.0746 7.89267C22.4539 7.63981 22.9596 7.63981 23.2125 8.0191C23.4653 8.39838 23.4653 8.90409 23.086 9.15695L18.1554 12.6969C17.7761 12.9498 17.2704 12.8233 17.0175 12.5705L15.6268 10.4212Z" fill="#00ADEE"/>
</svg>
