<svg width="17" height="17" viewBox="0 0 17 17" fill="none" xmlns="http://www.w3.org/2000/svg">
<path fill-rule="evenodd" clip-rule="evenodd" d="M15.8419 15.1278C15.8419 15.2216 15.8234 15.3145 15.7875 15.4012C15.7516 15.4879 15.699 15.5666 15.6326 15.6329C15.5663 15.6993 15.4875 15.7519 15.4008 15.7877C15.3142 15.8236 15.2212 15.8421 15.1274 15.842H1.62205C1.52827 15.842 1.4354 15.8236 1.34876 15.7877C1.26213 15.7518 1.18341 15.6992 1.11711 15.6328C1.0508 15.5665 0.998219 15.4878 0.962354 15.4011C0.926489 15.3145 0.908047 15.2216 0.908081 15.1278V13.8292C0.908081 13.4347 1.22754 13.115 1.62205 13.115H4.54415V11.7515C4.54415 11.5621 4.61936 11.3805 4.75325 11.2465C4.88713 11.1126 5.06873 11.0373 5.25811 11.0372H8.18021V9.67372C8.18021 9.2792 8.49967 8.95949 8.89418 8.95949H11.8163V7.59597C11.8163 7.20145 12.1357 6.88174 12.5302 6.88174H15.1274C15.2212 6.8817 15.3142 6.90015 15.4008 6.93603C15.4875 6.97191 15.5663 7.02451 15.6326 7.09084C15.699 7.15716 15.7516 7.23591 15.7875 7.32258C15.8234 7.40925 15.8419 7.50215 15.8419 7.59597V15.1278ZM12.5954 6.49216V6.29737C12.5954 6.04648 12.7991 5.84286 13.0499 5.84286H14.608C14.8591 5.84286 15.0625 6.04648 15.0625 6.29737V6.49216H12.5954ZM13.6343 5.45328V1.10299C13.6343 1.05133 13.6548 1.00179 13.6914 0.965256C13.7279 0.928725 13.7774 0.908203 13.8291 0.908203C13.8808 0.908203 13.9303 0.928725 13.9668 0.965256C14.0034 1.00179 14.0239 1.05133 14.0239 1.10299V5.45328H13.6343ZM13.2445 3.37553H10.1928C10.1579 3.37548 10.1236 3.36608 10.0936 3.34831C10.0635 3.33055 10.0388 3.30506 10.0219 3.2745C10.0052 3.24384 9.99701 3.20926 9.9982 3.17437C9.99939 3.13948 10.0099 3.10554 10.0286 3.07608L10.6231 2.14187L10.0286 1.20766C10.0099 1.17821 9.99935 1.14427 9.99816 1.10937C9.99697 1.07447 10.0052 1.03989 10.0219 1.00923C10.0388 0.978674 10.0635 0.953187 10.0936 0.935422C10.1236 0.917656 10.1579 0.908258 10.1928 0.908203H13.2445V3.37553Z" fill="#00ADEE"/>
</svg>
