<svg width="254" height="422" viewBox="0 0 254 422" fill="none" xmlns="http://www.w3.org/2000/svg">
<path d="M-11.744 280.735C-13.2075 281.792 -14.5784 282.615 -15.9494 283.437C-42.1941 343.173 -51.7757 391.781 -51.8056 392.571C-52.0654 393.276 -51.5397 394.009 -50.8408 394.273L-50.6049 394.363C-49.8194 394.39 -49.1772 394.096 -48.9144 393.394C-48.9442 392.042 -38.9804 341.705 -11.744 280.735ZM118.172 111.415C117.646 110.683 116.857 110.653 116.215 110.947C78.0742 137.556 47.6689 172.7 24.0973 208.812C24.7394 210.662 24.3631 212.394 23.9838 214.126C47.7585 176.751 78.5999 140.432 117.792 113.148C118.434 112.854 118.784 111.917 118.172 111.415Z" fill="#3C3C3C"/>
<path d="M110.995 117.817L110.583 116.057C110.703 115.031 97.1697 24.789 191.746 0.411352L193.496 0L193.353 1.81955C190.978 45.3745 127.542 109.854 112.686 116.847L110.995 117.817ZM190.521 3.69914C108.176 25.987 111.862 100.471 113.122 113.532C129.991 103.279 186.453 43.9393 190.521 3.69914Z" fill="#3C3C3C"/>
<path d="M124.745 123.798C116.101 120.543 111.344 116.877 111.344 116.877C110.728 116.379 110.525 115.499 111.021 114.883C111.517 114.265 112.392 114.061 113.004 114.559C113.619 115.058 165.631 154.181 249.153 86.5514C226.316 69.9203 150.709 84.8399 134.658 98.6126C134.162 99.2281 133.141 99.111 132.615 98.3784C132.003 97.88 132.12 96.8531 132.848 96.3246C150.124 81.405 230.02 65.6927 252.277 85.3173L253.502 86.3142L252.277 87.4581C191.081 138.057 146.005 131.8 124.745 123.798Z" fill="#3C3C3C"/>
<path d="M216.425 79.3182C216.192 79.2281 215.959 79.1411 215.813 78.8198C215.284 78.0842 215.547 77.3785 216.279 76.8531C216.365 76.6159 232.33 65.2212 234.295 28.4761C207.665 18.4536 187.056 25.1553 186.736 25.3024C186.559 25.3741 186.368 25.4061 186.177 25.3964C185.986 25.3866 185.8 25.3353 185.63 25.2459C185.461 25.1565 185.313 25.0313 185.197 24.8787C185.08 24.7262 184.998 24.5501 184.956 24.3626C184.885 24.1844 184.853 23.9928 184.863 23.801C184.872 23.6092 184.923 23.4218 185.011 23.2516C185.1 23.0815 185.224 22.9327 185.376 22.8155C185.527 22.6984 185.702 22.6157 185.888 22.5731C186.763 22.3659 208.101 15.1358 236.281 26.011L237.213 26.3623L237.096 27.3891C235.364 66.3652 218.351 78.4355 217.623 78.9639C217.446 79.4353 216.891 79.4924 216.425 79.3182ZM112.16 113.971L112.336 113.502C119.489 55.6821 158.473 25.3774 158.882 24.9931C159.201 24.846 159.437 24.9331 159.67 25.0231C159.817 25.3444 159.963 25.6657 159.64 25.8128C159.234 26.1971 120.974 55.9734 113.614 112.917C147.604 120.351 188.352 113.199 209.34 102.624C209.512 102.56 209.7 102.56 209.872 102.625C210.043 102.689 210.185 102.814 210.272 102.975C210.337 103.148 210.337 103.338 210.273 103.511C210.209 103.684 210.084 103.827 209.923 103.915C188.528 114.874 147.224 122.083 112.859 114.235L112.16 113.971Z" fill="#3C3C3C"/>
<path d="M113.791 114.586L114.144 113.646C122.39 92.9257 158.918 45.6235 159.417 45.011C159.507 44.7768 160.059 44.7168 160.292 44.8038C160.528 44.8939 160.585 45.4494 160.498 45.6866C160.003 46.3021 124.642 91.8958 115.661 113.154C139.949 109.44 162.658 101.387 176.406 96.6548C180.319 95.4508 183.44 94.2168 185.513 93.6583C185.684 93.5933 185.874 93.593 186.046 93.6576C186.217 93.7222 186.36 93.8473 186.447 94.0096C186.512 94.1822 186.512 94.3726 186.448 94.5454C186.384 94.7182 186.259 94.8617 186.098 94.9494C184.025 95.5079 180.901 96.7419 176.988 97.9459C162.688 102.738 139.424 110.851 114.902 114.472L113.791 114.592V114.586Z" fill="#3C3C3C"/>
<path d="M139.294 92.5925C139.061 92.5024 139.061 92.5024 138.914 92.1811C138.85 92.0081 138.85 91.8175 138.915 91.6447C138.98 91.4718 139.105 91.3285 139.267 91.2413C169.182 75.9944 216.487 38.3755 217.132 38.0812C217.452 37.9341 217.771 37.787 217.918 38.1113C218.067 38.4355 218.21 38.7568 217.888 38.9039C217.481 39.2853 169.854 77.0513 139.939 92.2982C139.53 92.6795 139.294 92.5925 139.294 92.5925ZM148.43 82.3748L148.194 82.2847C148.048 81.9635 147.905 81.6422 148.314 81.2609C174.048 55.0666 197.539 34.1899 197.861 34.0428C198.181 33.8927 198.504 33.7486 198.65 34.0728C198.796 34.3941 198.94 34.7154 198.62 34.8625C198.297 35.0126 175.042 55.9764 149.069 82.0806C149.016 82.1986 148.922 82.2932 148.804 82.3473C148.687 82.4013 148.554 82.4111 148.43 82.3748ZM165.452 85.2993C165.216 85.2122 165.216 85.2122 165.07 84.8909C165.005 84.7179 165.005 84.5273 165.07 84.3545C165.135 84.1816 165.26 84.0383 165.422 83.9511C165.742 83.801 196.655 73.7515 207.536 63.1225C207.858 62.9723 208.181 62.8282 208.327 63.1525C208.473 63.4738 208.62 63.795 208.297 63.9422C197.327 74.8084 167.056 84.5667 165.771 85.1552C165.771 85.1552 165.682 85.3894 165.452 85.2993ZM-16.4456 288.338L-17.0907 284.347C-35.0472 161.648 -13.9427 95.6911 7.17682 61.8704L8.51787 59.6996L9.54234 61.9575C41.8353 131.148 33.8308 188.383 21.2415 224.341C7.59796 263.119 -13.9964 286.05 -14.316 286.197L-16.4456 288.338ZM8.22815 65.4825C-12.1028 99.3302 -31.7468 164.23 -14.4056 282.143C-8.80243 275.685 7.50536 254.781 18.6729 223.371C30.9157 188.353 38.8575 132.703 8.22815 65.4825Z" fill="#3C3C3C"/>
<path d="M-14.6081 283.404C-15.31 283.143 -15.749 282.173 -15.4862 281.468C12.013 215.508 5.1733 86.5543 5.14343 85.2062C5.1733 84.4135 5.66911 83.795 6.45762 83.825C7.24612 83.855 7.8614 84.3535 7.83153 85.1461C7.8614 86.4973 14.9908 216.096 -12.7682 282.759C-13.0311 283.464 -13.9092 283.669 -14.6081 283.404Z" fill="#3C3C3C"/>
<path d="M-14.2002 283.023L-14.3734 281.351C-17.411 223.714 -6.07021 133.196 -5.95372 132.169C-5.86412 131.935 -5.45793 131.554 -5.22496 131.641C-4.98901 131.728 -4.60968 132.139 -4.69928 132.373C-4.81577 133.4 -16.0102 222.098 -13.2086 279.648C-6.38083 269.902 32.0111 210.452 16.1335 106.476C15.9871 106.155 16.3963 105.774 16.6293 105.861C16.9518 105.714 17.3311 106.125 17.2445 106.359C34.8157 220.075 -12.7128 281.174 -13.2086 281.792L-14.2002 283.023ZM233.538 149.218C159.696 130.794 105.405 149.986 72.8911 169.344C47.1481 184.822 30.3983 202.615 23.457 211.244L20.745 218.525L21.8531 218.405C144.642 212.685 205.145 178.961 234.007 151.536L235.963 149.86L233.541 149.218H233.538ZM23.224 215.445C28.4479 208.575 45.5143 188.491 74.2352 171.457C106.017 152.626 158.704 134.169 230.384 151.244C201.086 177.7 141.751 209.722 23.224 215.445Z" fill="#3C3C3C"/>
<path d="M22.5513 216.529C22.3183 216.444 22.0854 216.354 21.939 216.033C21.4133 215.3 21.6762 214.592 22.405 214.066C81.8835 173.799 209.864 155.568 211.058 155.217C211.421 155.233 211.773 155.351 212.072 155.558C212.371 155.765 212.607 156.053 212.752 156.388C212.736 156.752 212.618 157.105 212.412 157.406C212.206 157.707 211.92 157.944 211.587 158.09C210.243 158.12 83.0514 176.382 23.982 216.267C23.3398 216.559 23.0202 216.703 22.5513 216.529Z" fill="#3C3C3C"/>
<path d="M22.4388 215.417L23.4304 214.183C23.9262 213.565 74.2862 154.874 188.757 150.031C189.077 149.884 189.456 150.295 189.37 150.529C189.516 150.854 189.107 151.235 188.874 151.148C84.4472 155.484 33.7915 204.963 25.7362 213.712C82.4013 205.32 166.933 177.162 167.808 176.955C167.98 176.89 168.169 176.89 168.341 176.954C168.513 177.019 168.656 177.144 168.743 177.306C168.808 177.479 168.808 177.669 168.744 177.842C168.679 178.015 168.555 178.158 168.393 178.246C167.515 178.453 81.3768 207.344 24.5714 215.417H22.4388ZM-58.9985 421.191L-58.5027 418.432C-58.4161 418.197 -53.9658 386.938 -31.7084 352.207C-11.2878 320.266 28.5139 278.483 102.774 261.452L105.402 260.834L104.527 263.185C90.8538 300.609 52.0557 358.3 -55.2919 419.104L-58.9985 421.191ZM100.997 264.8C-24.9613 294.769 -51.4211 397.267 -55.1754 415.934C47.9966 357.039 86.7082 301.729 100.997 264.8Z" fill="#3C3C3C"/>
<path d="M-56.0816 416.933C-56.9298 416.348 -57.2225 415.702 -56.9597 414.997C-21.5186 352.027 84.4192 277.838 85.4706 277.162C86.1994 276.633 86.9012 276.898 87.4269 277.63C87.9526 278.366 87.6898 279.069 86.961 279.597C85.9096 280.273 -19.622 354.081 -54.5643 416.435C-54.7405 416.903 -55.3827 417.198 -56.0816 416.933Z" fill="#3C3C3C"/>
<path d="M-56.0544 416.14L-55.7617 414.642C-55.4988 413.94 -36.8225 338.768 63.1687 282.692C63.4882 282.545 63.7242 282.632 64.1035 283.044C64.2499 283.365 64.1632 283.602 63.7541 283.983C-27.453 335.066 -50.6602 402.374 -54.0682 413.675C-7.08323 380.488 55.6838 317.092 56.1796 316.474C56.4992 316.327 56.8218 316.183 56.9681 316.504C57.1145 316.828 57.2578 317.149 56.9382 317.297C56.4424 317.912 -7.86876 382.599 -55.003 415.465L-56.0544 416.14ZM27.0765 207.256C26.3746 206.992 25.9355 206.025 26.1984 205.317C26.4612 204.614 54.513 132.169 56.2991 89.4635C56.329 88.6708 57.0577 88.1423 57.8462 88.1724C58.6347 88.2024 59.1604 88.935 59.1305 89.7277C57.1682 132.901 29.0328 205.581 28.77 206.286C28.4205 207.223 27.7784 207.518 27.0765 207.256Z" fill="#3C3C3C"/>
<path d="M67.3077 92.8055C66.8717 93.9778 66.2101 95.0521 65.3608 95.9672C64.5115 96.8822 63.4911 97.62 62.358 98.1384C61.2249 98.6568 60.0012 98.9456 58.757 98.9883C57.5128 99.031 56.2724 98.8268 55.1068 98.3873C53.9404 97.9492 52.8714 97.2844 51.9608 96.4307C51.0503 95.577 50.316 94.5513 49.8001 93.4122C49.2841 92.273 48.9966 91.0428 48.9539 89.7919C48.9112 88.541 49.1143 87.2939 49.5514 86.1219C49.9871 84.949 50.6486 83.874 51.498 82.9584C52.3474 82.0428 53.368 81.3045 54.5015 80.7858C55.635 80.2671 56.8591 79.9781 58.1038 79.9355C59.3485 79.8928 60.5893 80.0973 61.7553 80.5371C62.9218 80.9755 63.9908 81.6406 64.9013 82.4946C65.8118 83.3487 66.5459 84.3747 67.0615 85.5142C67.5772 86.6536 67.8644 87.8841 67.9067 89.1352C67.9489 90.3863 67.7454 91.6335 67.3077 92.8055ZM-47.7786 386.055C-48.4775 385.791 -48.7702 385.145 -48.7403 384.353C-48.4805 383.647 -31.4648 312.94 41.4303 248.806C41.9261 248.187 42.9476 248.304 43.4733 249.04C44.0886 249.538 43.9721 250.565 43.2403 251.094C-29.159 314.61 -45.8223 384.38 -46.0851 385.085C-46.112 385.878 -46.7541 386.172 -47.7786 386.055C-47.5426 386.142 -47.5426 386.142 -47.7786 386.055Z" fill="#3C3C3C"/>
<path d="M33.6292 243.996C30.7708 248.812 32.2045 254.973 36.9086 258.081C41.6964 260.954 47.8283 259.513 50.9166 254.787C53.7779 249.974 52.3443 243.81 47.6431 240.702C42.8523 237.829 36.4905 239.18 33.6292 243.996Z" fill="#3C3C3C"/>
</svg>
